<svg width="189" height="24" viewBox="0 0 189 24" fill="none" xmlns="http://www.w3.org/2000/svg">
<path fill-rule="evenodd" clip-rule="evenodd" d="M21 12.6297C21 10.0294 20.1968 7.62854 18.8702 5.59003C16.6321 2.21065 12.7787 0 8.40181 0C7.41814 0 6.50666 0.10872 5.60421 0.317101C3.46541 0.770102 1.57026 1.79388 0 3.19819V18.2741C2.48174 18.2741 4.61152 16.6433 5.33348 14.3692C5.27933 14.2605 5.20713 14.1608 5.10786 14.0793L2.33734 11.6602C1.71465 11.1166 2.04856 10.1019 2.87881 10.0294L6.55178 9.68516C6.90374 9.64892 7.20155 9.44054 7.33691 9.12344L8.80791 5.77123C9.13279 5.01019 10.2157 5.01019 10.5496 5.77123L12.0116 9.12344C12.156 9.44054 12.4538 9.64892 12.7967 9.68516L16.4787 10.0294C17.309 10.1019 17.6429 11.1166 17.0202 11.6602L14.2407 14.0793C13.9789 14.3058 13.8706 14.6501 13.9428 14.9853L14.755 18.5549C14.9355 19.3522 14.0602 19.9864 13.3382 19.5696L10.1616 17.7033C9.86377 17.5311 9.14181 17.4677 8.78083 17.5674L8.12205 17.7667L7.38204 18.0113L6.60593 18.3284C4.28664 19.2616 0.98367 21.8165 0.216588 24H14.0331C15.9914 23.0125 17.6609 21.5176 18.8702 19.6784C20.2329 17.6761 21 15.2843 21 12.6659C21 12.6659 21 12.6659 21 12.6297Z" fill="white"/>
<path fill-rule="evenodd" clip-rule="evenodd" d="M41.5598 11.7675C41.5598 13.2213 41.3787 14.4648 41.0165 15.498C40.6544 16.5312 40.1344 17.3745 39.4568 18.0279C38.7791 18.6813 37.9555 19.1611 36.9857 19.4674C36.016 19.7736 34.8613 19.9268 33.5215 19.9268H29.9113C29.6543 19.9268 29.4381 19.8471 29.2629 19.6879C29.0876 19.5286 29 19.2693 29 18.9099V5.09064C29 4.73127 29.0876 4.47195 29.2629 4.31269C29.4381 4.15342 29.6543 4.07379 29.9113 4.07379H33.7903C35.1378 4.07379 36.2808 4.23918 37.2194 4.56996C38.158 4.90075 38.9486 5.39079 39.5912 6.0401C40.2338 6.68942 40.7225 7.49186 41.0574 8.44745C41.3924 9.40305 41.5598 10.5097 41.5598 11.7675ZM38.3819 11.8775C38.3819 11.1261 38.2982 10.4278 38.1307 9.78259C37.9632 9.13736 37.6945 8.5779 37.3245 8.10418C36.9546 7.63047 36.4794 7.2609 35.8991 6.99545C35.3189 6.73001 34.5575 6.59729 33.615 6.59729H32.0611V17.3783H33.6617C34.503 17.3783 35.2118 17.264 35.7881 17.0353C36.3645 16.8066 36.8455 16.4615 37.2311 16C37.6166 15.5386 37.9048 14.9648 38.0956 14.2788C38.2865 13.5927 38.3819 12.7923 38.3819 11.8775ZM59.9969 19.1057C59.9501 19.3017 59.8859 19.4589 59.8041 19.5773C59.7223 19.6958 59.5996 19.7856 59.436 19.8469C59.2725 19.9081 59.0622 19.949 58.8051 19.9694C58.5481 19.9898 58.221 20 57.8237 20C57.3797 20 57.0234 19.9898 56.7547 19.9694C56.4859 19.949 56.2737 19.9081 56.1179 19.8469C55.9621 19.7856 55.8492 19.6958 55.7791 19.5773C55.709 19.4589 55.6545 19.3017 55.6155 19.1057L53.197 9.05972H53.1737L50.8837 19.1057C50.8447 19.2935 50.7902 19.4467 50.7201 19.5651C50.65 19.6835 50.539 19.7754 50.3871 19.8407C50.2352 19.9061 50.0288 19.949 49.7679 19.9694C49.507 19.9898 49.1623 20 48.7339 20C48.2821 20 47.9219 19.9898 47.6532 19.9694C47.3844 19.949 47.1722 19.9081 47.0164 19.8469C46.8606 19.7856 46.7477 19.6958 46.6776 19.5773C46.6075 19.4589 46.5491 19.3017 46.5023 19.1057L43.0674 5.27412C42.9973 4.98009 42.9583 4.74936 42.9505 4.58193C42.9427 4.4145 42.9875 4.28586 43.0849 4.19602C43.1823 4.10618 43.3419 4.05105 43.5639 4.03063C43.7859 4.01021 44.0955 4 44.4928 4C44.8589 4 45.149 4.00613 45.3632 4.01838C45.5774 4.03063 45.739 4.05921 45.8481 4.10413C45.9571 4.14906 46.0311 4.21439 46.07 4.30015C46.109 4.38591 46.1401 4.50638 46.1635 4.66156L48.8157 16.8025H48.8274L51.5847 4.74732C51.6158 4.59214 51.6567 4.46554 51.7074 4.36753C51.758 4.26952 51.8437 4.19398 51.9644 4.14089C52.0851 4.0878 52.2507 4.05105 52.461 4.03063C52.6713 4.01021 52.9517 4 53.3022 4C53.676 4 53.974 4.00817 54.196 4.0245C54.418 4.04084 54.5893 4.07555 54.71 4.12864C54.8308 4.18173 54.9184 4.25727 54.9729 4.35528C55.0274 4.45329 55.0703 4.58397 55.1014 4.74732L57.9522 16.8025H57.9756L60.6278 4.69832C60.6511 4.56764 60.6823 4.45533 60.7212 4.36141C60.7602 4.26748 60.8342 4.19398 60.9432 4.14089C61.0523 4.0878 61.208 4.05105 61.4106 4.03063C61.6131 4.01021 61.8974 4 62.2635 4C62.6062 4 62.873 4.01021 63.0638 4.03063C63.2546 4.05105 63.3929 4.10618 63.4786 4.19602C63.5642 4.28586 63.6012 4.41858 63.5896 4.59418C63.5779 4.76978 63.537 5.00868 63.4669 5.31087L59.9969 19.1057ZM74.729 18.665C74.729 18.9018 74.7192 19.0999 74.6998 19.2592C74.6803 19.4184 74.6511 19.5471 74.6121 19.6451C74.5732 19.7431 74.5245 19.8145 74.4661 19.8595C74.4077 19.9044 74.3434 19.9268 74.2733 19.9268H66.679C66.4219 19.9268 66.2058 19.8472 66.0306 19.6879C65.8553 19.5287 65.7677 19.2694 65.7677 18.91V5.0907C65.7677 4.73133 65.8553 4.47202 66.0306 4.31275C66.2058 4.15348 66.4219 4.07385 66.679 4.07385H74.2266C74.2967 4.07385 74.359 4.09427 74.4135 4.13511C74.468 4.17595 74.5148 4.24741 74.5537 4.3495C74.5927 4.4516 74.6219 4.58227 74.6413 4.74154C74.6608 4.90081 74.6706 5.10295 74.6706 5.34797C74.6706 5.57666 74.6608 5.77064 74.6413 5.9299C74.6219 6.08917 74.5927 6.2178 74.5537 6.31581C74.5148 6.41382 74.468 6.48529 74.4135 6.53021C74.359 6.57513 74.2967 6.59759 74.2266 6.59759H68.8288V10.469H73.397C73.4671 10.469 73.5314 10.4914 73.5898 10.5363C73.6482 10.5813 73.6969 10.6507 73.7359 10.7446C73.7748 10.8385 73.804 10.9651 73.8235 11.1244C73.843 11.2837 73.8527 11.4776 73.8527 11.7063C73.8527 11.9432 73.843 12.1392 73.8235 12.2944C73.804 12.4496 73.7748 12.5741 73.7359 12.668C73.6969 12.762 73.6482 12.8293 73.5898 12.8702C73.5314 12.911 73.4671 12.9314 73.397 12.9314H68.8288V17.4031H74.2733C74.3434 17.4031 74.4077 17.4256 74.4661 17.4705C74.5245 17.5154 74.5732 17.5869 74.6121 17.6849C74.6511 17.7829 74.6803 17.9115 74.6998 18.0708C74.7192 18.2301 74.729 18.4281 74.729 18.665ZM89.9998 11.7676C89.9998 13.2214 89.8187 14.4649 89.4565 15.4981C89.0943 16.5312 88.5744 17.3745 87.8967 18.0279C87.2191 18.6813 86.3954 19.1611 85.4257 19.4674C84.4559 19.7737 83.3012 19.9268 81.9615 19.9268H78.3513C78.0942 19.9268 77.8781 19.8472 77.7028 19.6879C77.5276 19.5287 77.4399 19.2694 77.4399 18.91V5.0907C77.4399 4.73133 77.5276 4.47202 77.7028 4.31275C77.8781 4.15348 78.0942 4.07385 78.3513 4.07385H82.2302C83.5777 4.07385 84.7207 4.23924 85.6593 4.57002C86.5979 4.90081 87.3885 5.39085 88.0311 6.04016C88.6737 6.68948 89.1624 7.49192 89.4974 8.44751C89.8323 9.40311 89.9998 10.5098 89.9998 11.7676ZM86.8223 11.8775C86.8223 11.1261 86.7385 10.4278 86.5711 9.78259C86.4036 9.13736 86.1349 8.5779 85.7649 8.10418C85.3949 7.63047 84.9198 7.2609 84.3395 6.99545C83.7592 6.73001 82.9979 6.59729 82.0554 6.59729H80.5015V17.3783H82.1021C82.9433 17.3783 83.6521 17.264 84.2285 17.0353C84.8049 16.8066 85.2859 16.4615 85.6714 16C86.057 15.5386 86.3452 14.9648 86.536 14.2788C86.7269 13.5927 86.8223 12.7923 86.8223 11.8775Z" fill="white"/>
<path d="M98 4.85106H104.398C106.076 4.85106 107.312 5.20567 108.109 5.91489C108.905 6.60993 109.303 7.58156 109.303 8.82979C109.303 9.59574 109.111 10.2553 108.727 10.8085C108.357 11.3475 107.846 11.7376 107.192 11.9787C108.045 12.1773 108.713 12.5816 109.196 13.1915C109.694 13.7872 109.943 14.5674 109.943 15.5319C109.943 16.1702 109.843 16.7518 109.644 17.2766C109.445 17.7872 109.132 18.2269 108.706 18.5957C108.293 18.9645 107.753 19.2482 107.085 19.4468C106.417 19.6454 105.613 19.7447 104.675 19.7447H98V4.85106ZM104.099 17.3191C105.095 17.3191 105.784 17.1489 106.168 16.8085C106.552 16.4681 106.744 15.9645 106.744 15.2979C106.744 14.6312 106.552 14.1135 106.168 13.7447C105.784 13.3617 105.087 13.1702 104.078 13.1702H101.199V17.3191H104.099ZM103.758 11C104.625 11 105.23 10.8298 105.571 10.4894C105.926 10.1489 106.104 9.68794 106.104 9.10638C106.104 8.51064 105.933 8.05674 105.592 7.74468C105.251 7.43262 104.647 7.2766 103.779 7.2766H101.199V11H103.758Z" fill="white"/>
<path d="M115.95 20C114.628 20 113.633 19.6312 112.964 18.8936C112.296 18.1418 111.962 16.9858 111.962 15.4255V8.46808H114.777V15.0426C114.777 15.8936 114.941 16.539 115.268 16.9787C115.609 17.4043 116.178 17.617 116.974 17.617C117.4 17.617 117.763 17.5461 118.061 17.4043C118.36 17.2624 118.609 17.078 118.808 16.8511C119.007 16.6099 119.149 16.3333 119.234 16.0213C119.334 15.7092 119.384 15.383 119.384 15.0426V8.46808H122.199V19.7447H119.597V18.0851C119.327 18.5957 118.893 19.0426 118.296 19.4255C117.713 19.8085 116.931 20 115.95 20Z" fill="white"/>
<path d="M129.337 20C128.413 20 127.631 19.9007 126.991 19.7021C126.366 19.5035 125.854 19.2411 125.456 18.9149C125.072 18.5887 124.78 18.2128 124.581 17.7872C124.382 17.3617 124.262 16.9149 124.219 16.4468H127.034C127.105 16.8156 127.325 17.1206 127.695 17.3617C128.065 17.5887 128.612 17.7021 129.337 17.7021C130.162 17.7021 130.752 17.5887 131.107 17.3617C131.463 17.1348 131.64 16.844 131.64 16.4894C131.64 16.305 131.598 16.1489 131.512 16.0213C131.427 15.8794 131.278 15.7518 131.065 15.6383C130.866 15.5248 130.588 15.4255 130.233 15.3404C129.877 15.2553 129.43 15.1702 128.889 15.0851C128.278 15 127.709 14.8794 127.183 14.7234C126.657 14.5674 126.195 14.3546 125.797 14.0851C125.413 13.8156 125.107 13.4823 124.88 13.0851C124.652 12.6738 124.539 12.1773 124.539 11.5957C124.539 11.1277 124.645 10.6879 124.859 10.2766C125.072 9.86525 125.385 9.51064 125.797 9.21276C126.209 8.90071 126.714 8.65957 127.311 8.48936C127.908 8.30496 128.584 8.21276 129.337 8.21276C130.148 8.21276 130.837 8.31206 131.406 8.51064C131.989 8.70922 132.465 8.97872 132.835 9.31915C133.204 9.64539 133.482 10.0213 133.666 10.4468C133.851 10.8723 133.972 11.3121 134.029 11.766H131.214C131.1 11.3546 130.88 11.0426 130.553 10.8298C130.226 10.617 129.821 10.5106 129.337 10.5106C128.626 10.5106 128.114 10.6241 127.802 10.8511C127.503 11.0638 127.354 11.3333 127.354 11.6596C127.354 11.8298 127.389 11.9787 127.46 12.1064C127.532 12.234 127.66 12.3475 127.844 12.4468C128.043 12.5461 128.306 12.6383 128.633 12.7234C128.975 12.7943 129.401 12.8652 129.913 12.9362C130.553 13.0213 131.143 13.1489 131.683 13.3191C132.238 13.4752 132.721 13.6879 133.133 13.9574C133.546 14.2269 133.865 14.5674 134.093 14.9787C134.335 15.3901 134.455 15.8794 134.455 16.4468C134.455 16.9574 134.349 17.4326 134.136 17.8723C133.922 18.2979 133.602 18.6738 133.176 19C132.749 19.3121 132.216 19.5603 131.576 19.7447C130.937 19.9149 130.19 20 129.337 20Z" fill="white"/>
<path d="M136.691 8.46808H139.506V19.7447H136.691V8.46808ZM138.098 7.40425C137.601 7.40425 137.188 7.24823 136.861 6.93617C136.548 6.60993 136.392 6.19858 136.392 5.70213C136.392 5.20567 136.548 4.80142 136.861 4.48936C137.188 4.16312 137.601 4 138.098 4C138.596 4 139.001 4.16312 139.314 4.48936C139.641 4.80142 139.804 5.20567 139.804 5.70213C139.804 6.19858 139.641 6.60993 139.314 6.93617C139.001 7.24823 138.596 7.40425 138.098 7.40425Z" fill="white"/>
<path d="M142.288 8.46808H144.89V10.1277C145.16 9.61702 145.593 9.17021 146.191 8.78723C146.802 8.40425 147.619 8.21276 148.643 8.21276C150.022 8.21276 151.046 8.58156 151.714 9.31915C152.397 10.0567 152.738 11.1206 152.738 12.5106V19.7447H149.923V13.1489C149.923 12.2979 149.745 11.6596 149.39 11.234C149.048 10.8085 148.458 10.5957 147.619 10.5957C147.165 10.5957 146.781 10.6667 146.468 10.8085C146.155 10.9504 145.892 11.1418 145.679 11.383C145.48 11.6099 145.33 11.8794 145.231 12.1915C145.146 12.4894 145.103 12.8085 145.103 13.1489V19.7447H142.288V8.46808Z" fill="white"/>
<path d="M160.319 20C159.551 20 158.819 19.8865 158.122 19.6596C157.44 19.4184 156.842 19.0638 156.331 18.5957C155.819 18.1135 155.414 17.5106 155.115 16.7872C154.816 16.0496 154.667 15.1915 154.667 14.2128V13.7872C154.667 12.8511 154.809 12.0355 155.094 11.3404C155.378 10.6454 155.769 10.0709 156.267 9.61702C156.764 9.14894 157.34 8.80142 157.994 8.57447C158.648 8.33333 159.352 8.21276 160.105 8.21276C161.883 8.21276 163.233 8.68085 164.157 9.61702C165.082 10.5532 165.544 11.9078 165.544 13.6809V14.8723H157.546C157.56 15.3688 157.646 15.8014 157.802 16.1702C157.959 16.5248 158.165 16.8156 158.421 17.0426C158.676 17.2695 158.968 17.4397 159.295 17.5532C159.636 17.6525 159.977 17.7021 160.319 17.7021C161.044 17.7021 161.591 17.5957 161.961 17.383C162.33 17.1702 162.593 16.8582 162.75 16.4468H165.33C165.103 17.6241 164.541 18.5106 163.646 19.1064C162.75 19.7021 161.641 20 160.319 20ZM160.212 10.5106C159.885 10.5106 159.558 10.5532 159.231 10.6383C158.918 10.7234 158.641 10.8582 158.399 11.0426C158.158 11.227 157.959 11.4752 157.802 11.7872C157.646 12.0993 157.56 12.4752 157.546 12.9149H162.814C162.8 12.4468 162.721 12.0567 162.579 11.7447C162.451 11.4326 162.266 11.1844 162.025 11C161.797 10.8156 161.527 10.6879 161.214 10.617C160.902 10.5461 160.567 10.5106 160.212 10.5106Z" fill="white"/>
<path d="M172.156 20C171.232 20 170.45 19.9007 169.81 19.7021C169.185 19.5035 168.673 19.2411 168.275 18.9149C167.891 18.5887 167.6 18.2128 167.401 17.7872C167.202 17.3617 167.081 16.9149 167.038 16.4468H169.853C169.924 16.8156 170.145 17.1206 170.514 17.3617C170.884 17.5887 171.431 17.7021 172.156 17.7021C172.981 17.7021 173.571 17.5887 173.926 17.3617C174.282 17.1348 174.46 16.844 174.46 16.4894C174.46 16.305 174.417 16.1489 174.332 16.0213C174.246 15.8794 174.097 15.7518 173.884 15.6383C173.685 15.5248 173.408 15.4255 173.052 15.3404C172.697 15.2553 172.249 15.1702 171.709 15.0851C171.097 15 170.528 14.8794 170.002 14.7234C169.476 14.5674 169.014 14.3546 168.616 14.0851C168.232 13.8156 167.927 13.4823 167.699 13.0851C167.472 12.6738 167.358 12.1773 167.358 11.5957C167.358 11.1277 167.465 10.6879 167.678 10.2766C167.891 9.86525 168.204 9.51064 168.616 9.21276C169.029 8.90071 169.533 8.65957 170.13 8.48936C170.728 8.30496 171.403 8.21276 172.156 8.21276C172.967 8.21276 173.656 8.31206 174.225 8.51064C174.808 8.70922 175.284 8.97872 175.654 9.31915C176.024 9.64539 176.301 10.0213 176.486 10.4468C176.67 10.8723 176.791 11.3121 176.848 11.766H174.033C173.919 11.3546 173.699 11.0426 173.372 10.8298C173.045 10.617 172.64 10.5106 172.156 10.5106C171.446 10.5106 170.934 10.6241 170.621 10.8511C170.322 11.0638 170.173 11.3333 170.173 11.6596C170.173 11.8298 170.209 11.9787 170.28 12.1064C170.351 12.234 170.479 12.3475 170.664 12.4468C170.863 12.5461 171.126 12.6383 171.453 12.7234C171.794 12.7943 172.22 12.8652 172.732 12.9362C173.372 13.0213 173.962 13.1489 174.502 13.3191C175.057 13.4752 175.54 13.6879 175.952 13.9574C176.365 14.2269 176.685 14.5674 176.912 14.9787C177.154 15.3901 177.275 15.8794 177.275 16.4468C177.275 16.9574 177.168 17.4326 176.955 17.8723C176.742 18.2979 176.422 18.6738 175.995 19C175.569 19.3121 175.035 19.5603 174.396 19.7447C173.756 19.9149 173.009 20 172.156 20Z" fill="white"/>
<path d="M183.882 20C182.958 20 182.176 19.9007 181.536 19.7021C180.91 19.5035 180.398 19.2411 180 18.9149C179.616 18.5887 179.325 18.2128 179.126 17.7872C178.927 17.3617 178.806 16.9149 178.763 16.4468H181.578C181.65 16.8156 181.87 17.1206 182.24 17.3617C182.609 17.5887 183.157 17.7021 183.882 17.7021C184.706 17.7021 185.296 17.5887 185.652 17.3617C186.007 17.1348 186.185 16.844 186.185 16.4894C186.185 16.305 186.142 16.1489 186.057 16.0213C185.972 15.8794 185.822 15.7518 185.609 15.6383C185.41 15.5248 185.133 15.4255 184.777 15.3404C184.422 15.2553 183.974 15.1702 183.434 15.0851C182.822 15 182.254 14.8794 181.728 14.7234C181.202 14.5674 180.74 14.3546 180.342 14.0851C179.958 13.8156 179.652 13.4823 179.424 13.0851C179.197 12.6738 179.083 12.1773 179.083 11.5957C179.083 11.1277 179.19 10.6879 179.403 10.2766C179.616 9.86525 179.929 9.51064 180.342 9.21276C180.754 8.90071 181.259 8.65957 181.856 8.48936C182.453 8.30496 183.128 8.21276 183.882 8.21276C184.692 8.21276 185.382 8.31206 185.95 8.51064C186.533 8.70922 187.01 8.97872 187.379 9.31915C187.749 9.64539 188.026 10.0213 188.211 10.4468C188.396 10.8723 188.517 11.3121 188.573 11.766H185.758C185.645 11.3546 185.424 11.0426 185.097 10.8298C184.77 10.617 184.365 10.5106 183.882 10.5106C183.171 10.5106 182.659 10.6241 182.346 10.8511C182.048 11.0638 181.898 11.3333 181.898 11.6596C181.898 11.8298 181.934 11.9787 182.005 12.1064C182.076 12.234 182.204 12.3475 182.389 12.4468C182.588 12.5461 182.851 12.6383 183.178 12.7234C183.519 12.7943 183.946 12.8652 184.457 12.9362C185.097 13.0213 185.687 13.1489 186.228 13.3191C186.782 13.4752 187.265 13.6879 187.678 13.9574C188.09 14.2269 188.41 14.5674 188.637 14.9787C188.879 15.3901 189 15.8794 189 16.4468C189 16.9574 188.893 17.4326 188.68 17.8723C188.467 18.2979 188.147 18.6738 187.72 19C187.294 19.3121 186.761 19.5603 186.121 19.7447C185.481 19.9149 184.735 20 183.882 20Z" fill="white"/>
</svg>
